<svg width="1231" height="182" viewBox="0 0 1231 182" fill="none" xmlns="http://www.w3.org/2000/svg">
<path d="M271.484 65.5668H287.358C286.879 48.0952 271.431 35.4176 249.272 35.4176C227.379 35.4176 210.6 47.9354 210.6 66.7386C210.6 81.9197 221.467 90.8153 238.991 95.5561L251.882 99.0717C263.548 102.161 272.55 105.996 272.55 115.691C272.55 126.344 262.376 133.376 248.366 133.376C235.689 133.376 225.142 127.729 224.183 115.851H207.67C208.736 135.613 224.023 147.811 248.473 147.811C274.094 147.811 288.849 134.335 288.849 115.851C288.849 96.1953 271.325 88.5781 257.475 85.169L246.822 82.3991C238.299 80.2152 226.953 76.2202 227.006 65.7798C227.006 56.5114 235.476 49.6399 248.899 49.6399C261.417 49.6399 270.312 55.4993 271.484 65.5668ZM299.74 176.682H315.667V133.269H316.626C319.502 138.489 325.361 147.598 340.276 147.598C360.091 147.598 374.474 131.724 374.474 105.251C374.474 78.7237 359.878 63.1165 340.116 63.1165C324.935 63.1165 319.449 72.3849 316.626 77.4453H315.294V64.1818H299.74V176.682ZM315.347 105.091C315.347 87.9922 322.805 76.6463 336.707 76.6463C351.143 76.6463 358.387 88.8445 358.387 105.091C358.387 121.497 350.93 134.015 336.707 134.015C323.018 134.015 315.347 122.296 315.347 105.091ZM400.745 36.9091H384.818V146H400.745V36.9091ZM449.934 147.651C467.779 147.651 480.403 138.862 484.025 125.545L468.951 122.829C466.074 130.553 459.15 134.494 450.094 134.494C436.458 134.494 427.296 125.652 426.87 109.885H485.037V104.239C485.037 74.6754 467.353 63.1165 448.816 63.1165C426.017 63.1165 410.996 80.4815 410.996 105.624C410.996 131.032 425.804 147.651 449.934 147.651ZM426.923 97.9531C427.562 86.3409 435.978 76.2734 448.922 76.2734C461.28 76.2734 469.377 85.4354 469.43 97.9531H426.923ZM511.135 97.4205C511.135 84.37 519.126 76.9126 530.205 76.9126C541.018 76.9126 547.57 83.9972 547.57 95.8757V146H563.497V93.9581C563.497 73.7166 552.364 63.1165 535.638 63.1165C523.334 63.1165 515.29 68.816 511.508 77.4986H510.496V64.1818H495.209V146H511.135V97.4205ZM607.986 147.598C622.9 147.598 628.76 138.489 631.636 133.269H632.968V146H648.522V36.9091H632.595V77.4453H631.636C628.76 72.3849 623.327 63.1165 608.092 63.1165C588.33 63.1165 573.788 78.7237 573.788 105.251C573.788 131.724 588.117 147.598 607.986 147.598ZM611.501 134.015C597.279 134.015 589.875 121.497 589.875 105.091C589.875 88.8445 597.119 76.6463 611.501 76.6463C625.404 76.6463 632.861 87.9922 632.861 105.091C632.861 122.296 625.244 134.015 611.501 134.015ZM663.754 146H679.68V64.1818H663.754V146ZM671.797 51.5575C677.283 51.5575 681.864 47.2962 681.864 42.076C681.864 36.8558 677.283 32.5412 671.797 32.5412C666.257 32.5412 661.729 36.8558 661.729 42.076C661.729 47.2962 666.257 51.5575 671.797 51.5575ZM724.236 147.598C739.15 147.598 745.01 138.489 747.886 133.269H749.218V146H764.772V36.9091H748.845V77.4453H747.886C745.01 72.3849 739.577 63.1165 724.342 63.1165C704.58 63.1165 690.038 78.7237 690.038 105.251C690.038 131.724 704.367 147.598 724.236 147.598ZM727.751 134.015C713.529 134.015 706.125 121.497 706.125 105.091C706.125 88.8445 713.369 76.6463 727.751 76.6463C741.654 76.6463 749.111 87.9922 749.111 105.091C749.111 122.296 741.494 134.015 727.751 134.015Z" fill="#6469F1"/>
<path d="M872.979 65.5668H888.852C888.373 48.0952 872.925 35.4176 850.766 35.4176C828.873 35.4176 812.094 47.9354 812.094 66.7386C812.094 81.9197 822.961 90.8153 840.486 95.5561L853.376 99.0717C865.042 102.161 874.044 105.996 874.044 115.691C874.044 126.344 863.87 133.376 849.861 133.376C837.183 133.376 826.636 127.729 825.677 115.851H809.165C810.23 135.613 825.518 147.811 849.967 147.811C875.589 147.811 890.344 134.335 890.344 115.851C890.344 96.1953 872.819 88.5781 858.969 85.169L848.316 82.3991C839.793 80.2152 828.447 76.2202 828.501 65.7798C828.501 56.5114 836.97 49.6399 850.393 49.6399C862.911 49.6399 871.807 55.4993 872.979 65.5668ZM901.234 176.682H917.161V133.269H918.12C920.996 138.489 926.855 147.598 941.77 147.598C961.586 147.598 975.968 131.724 975.968 105.251C975.968 78.7237 961.373 63.1165 941.61 63.1165C926.429 63.1165 920.943 72.3849 918.12 77.4453H916.788V64.1818H901.234V176.682ZM916.841 105.091C916.841 87.9922 924.299 76.6463 938.201 76.6463C952.637 76.6463 959.881 88.8445 959.881 105.091C959.881 121.497 952.424 134.015 938.201 134.015C924.512 134.015 916.841 122.296 916.841 105.091ZM1021.57 147.651C1039.42 147.651 1052.04 138.862 1055.67 125.545L1040.59 122.829C1037.71 130.553 1030.79 134.494 1021.73 134.494C1008.1 134.494 998.936 125.652 998.51 109.885H1056.68V104.239C1056.68 74.6754 1038.99 63.1165 1020.46 63.1165C997.658 63.1165 982.637 80.4815 982.637 105.624C982.637 131.032 997.445 147.651 1021.57 147.651ZM998.564 97.9531C999.203 86.3409 1007.62 76.2734 1020.56 76.2734C1032.92 76.2734 1041.02 85.4354 1041.07 97.9531H998.564ZM1102.11 147.651C1119.96 147.651 1132.58 138.862 1136.2 125.545L1121.13 122.829C1118.25 130.553 1111.33 134.494 1102.27 134.494C1088.64 134.494 1079.47 125.652 1079.05 109.885H1137.22V104.239C1137.22 74.6754 1119.53 63.1165 1100.99 63.1165C1078.2 63.1165 1063.17 80.4815 1063.17 105.624C1063.17 131.032 1077.98 147.651 1102.11 147.651ZM1079.1 97.9531C1079.74 86.3409 1088.16 76.2734 1101.1 76.2734C1113.46 76.2734 1121.55 85.4354 1121.61 97.9531H1079.1ZM1178.01 147.598C1192.93 147.598 1198.79 138.489 1201.67 133.269H1203V146H1218.55V36.9091H1202.62V77.4453H1201.67C1198.79 72.3849 1193.36 63.1165 1178.12 63.1165C1158.36 63.1165 1143.82 78.7237 1143.82 105.251C1143.82 131.724 1158.15 147.598 1178.01 147.598ZM1181.53 134.015C1167.31 134.015 1159.9 121.497 1159.9 105.091C1159.9 88.8445 1167.15 76.6463 1181.53 76.6463C1195.43 76.6463 1202.89 87.9922 1202.89 105.091C1202.89 122.296 1195.27 134.015 1181.53 134.015Z" fill="#333333"/>
<path d="M136.5 103C136.5 95.5636 135.134 88.1279 132.606 81.3811L139.974 68.5928C145.331 79.0347 148.5 90.5795 148.5 103C148.5 123.282 140.273 141.652 126.971 154.957C124.631 157.231 120.85 157.228 118.511 154.889L118.51 154.888C117.954 154.334 117.513 153.675 117.212 152.95C116.912 152.225 116.757 151.447 116.757 150.662C116.757 149.877 116.912 149.1 117.212 148.375C117.513 147.65 117.953 146.992 118.508 146.438M136.5 103H135M136.5 103C136.5 102.999 136.5 102.998 136.5 102.997L135 103M136.5 103C136.517 111.069 134.936 119.061 131.848 126.516C128.76 133.972 124.227 140.743 118.508 146.438M135 103C135 95.5 133.575 88 130.95 81.25L135 103ZM118.508 146.438L117.45 145.375L118.51 146.437C118.509 146.437 118.509 146.437 118.508 146.438ZM64.4958 84.7265L64.5014 84.7232L132.472 45.3831L93.8009 112.375L93.7815 112.409L93.7639 112.443C90.2574 119.316 83.1839 124 75 124C69.4305 124 64.089 121.787 60.1508 117.849C56.2125 113.911 54 108.57 54 103C54 95.1517 58.2749 88.2912 64.4958 84.7265ZM31.4931 146.439L31.9318 146.875H31.963C33.895 149.226 33.7622 152.691 31.5644 154.889C29.2251 157.229 25.3689 157.231 23.0279 154.957C16.1956 148.142 10.7767 140.045 7.08227 131.131C3.38674 122.214 1.48967 112.654 1.50004 103.002V103C1.50004 83.5066 9.24377 64.8116 23.0277 51.0276C36.8116 37.2437 55.5066 29.5 75 29.5C87.3401 29.5 98.9317 32.6637 109.189 37.9469L96.3948 45.3188C89.8533 42.8622 82.425 41.5 75 41.5C58.6892 41.5 43.0465 47.9794 31.513 59.5129C19.9795 71.0464 13.5 86.6892 13.5 103C13.5 119.986 20.3424 135.366 31.4931 146.439Z" fill="#6469F1" stroke="#6469F1" stroke-width="3"/>
</svg>
