<svg width="164" height="164" viewBox="0 0 164 164" fill="none" xmlns="http://www.w3.org/2000/svg">
<path d="M40.3333 52.8333L65.3333 77.8333M40.3333 77.8333L65.3333 52.8333M98.6667 52.8333L123.667 77.8333M98.6667 77.8333L123.667 52.8333M61.1667 107C63.8823 109.772 67.1237 111.974 70.7011 113.477C74.2784 114.98 78.1197 115.754 82 115.754C85.8803 115.754 89.7216 114.98 93.299 113.477C96.8763 111.974 100.118 109.772 102.833 107M157 82C157 123.421 123.421 157 82 157C40.5786 157 7 123.421 7 82C7 40.5786 40.5786 7 82 7C123.421 7 157 40.5786 157 82Z" stroke="#6469F1" stroke-width="14" stroke-linecap="round" stroke-linejoin="round"/>
</svg>
